<svg height="587" viewBox="-.69 -1.93 960.28 223.71" width="2500" xmlns="http://www.w3.org/2000/svg"><path d="m98.32 211.89c0-5.47-4.43-9.89-9.9-9.89-5.48 0-9.91 4.42-9.91 9.89s4.43 9.89 9.91 9.89c5.47 0 9.9-4.42 9.9-9.89zm46.98-67.35-55.79 5.97c-1.02.11-1.55-1.19-.74-1.82l54.6-42.46c3.55-2.89 5.8-7.4 4.83-12.23-.96-7.4-7.09-12.23-14.82-11.26l-59.32 8.67c-1.05.15-1.61-1.18-.77-1.82l58.8-44.84c11.61-9.01 12.57-26.72 1.94-37.02-9.67-9.66-25.14-9.34-34.81.32l-94.76 96.25c-3.54 3.86-5.15 9.01-4.18 14.48 1.61 8.69 10.31 14.49 19.02 12.88l51.07-10.41c1.11-.22 1.72 1.26.76 1.86l-56.68 36.23c-7.09 4.51-10.31 12.55-8.06 20.6 2.26 10.63 12.9 16.74 23.21 14.17l84.71-20.85c.95-.23 1.65.88 1.04 1.64l-13.23 16.31c-3.55 4.5 2.25 10.62 7.09 7.08l43.51-35.73c7.73-6.43 2.58-18.99-7.41-18.03z" fill="#87e64b"/><path d="m254.07 43.9c-43.83 0-69.08 29.68-69.08 67.27 0 37.6 24.26 67.28 69.83 67.28 34.69 0 53.19-18.25 61.33-36.66.43-.99-.13-2.13-1.19-2.36l-34.8-7.58c-1.04-.22-2.11.27-2.61 1.21-3.93 7.48-11.16 13.74-22.49 13.74-17.08 0-27.98-10.14-30.7-25.73h93.07c.88 0 1.61-.65 1.7-1.52.38-3.76.57-9.12.57-12.58 0-43.52-32.43-63.06-65.62-63.06zm-28.96 53.43c2.97-13.1 10.89-22.75 29.71-22.75 14.36 0 24.27 7.91 26 22.75zm108.19 77.17h36.21c.94 0 1.7-.76 1.7-1.7v-66.07c0-20.28 8.67-29.19 22.29-29.19 12.63 0 21.29 9.16 21.29 25.73v69.53c0 .94.76 1.7 1.71 1.7h36.21c.94 0 1.7-.76 1.7-1.7v-75.22c0-37.1-20.8-53.67-45.07-53.67-16.58 0-29.46 6.68-38.13 20.29v-14.63c0-.94-.76-1.7-1.7-1.7h-36.21a1.7 1.7 0 0 0 -1.71 1.7v123.23c0 .94.76 1.7 1.71 1.7zm123.53-126.64c-1.17 0-1.99 1.18-1.6 2.28l44.18 122.78c.35.95 1.25 1.58 2.25 1.58h48.15a2.4 2.4 0 0 0 2.25-1.58l44.17-122.78c.41-1.11-.42-2.28-1.6-2.28h-38.41c-.75 0-1.41.49-1.63 1.21l-28.85 95.5-28.85-95.5c-.23-.72-.89-1.21-1.64-1.21zm223.45 124.94c0 .95.76 1.71 1.7 1.71h34.23c.95 0 1.71-.76 1.71-1.71v-69.52c0-52.44-31.49-59.37-59.93-59.37s-56.15 11.92-61.62 41.1c-.17.93.47 1.82 1.4 1.97l33.59 5.59c.97.17 1.87-.53 1.96-1.51 1.08-10.69 9.6-18.46 23.67-18.46 11.14 0 19.06 4.7 20.55 13.61.98 5.19-1.98 13.1-12.88 13.1h-19.82c-34.17 0-49.77 17.56-49.77 41.06 0 22.26 18.57 38.08 43.58 38.08 21.55 0 35.41-12.12 41.6-24.98v19.33zm-45.58-35.65c-.26-8.17 4.95-14.1 19.56-14.1h24.02c-1.24 14.84-12.14 26.71-27.98 26.71-8.43 0-15.35-3.96-15.6-12.61zm90.85-57.63h22.07v42.04c0 44.52 21.05 54.91 51.75 54.91 5.62 0 10.37-.7 13.79-1.51a2.388 2.388 0 0 0 1.81-2.32v-29.81c0-.92-.92-1.59-1.8-1.28-13.25 4.7-25.94-1.37-25.94-16.28v-45.76h26.03a1.7 1.7 0 0 0 1.71-1.7v-28.25c0-.95-.76-1.71-1.71-1.71h-26.03v-33.91c0-.94-.76-1.7-1.7-1.7h-32.25a1.7 1.7 0 0 0 -1.71 1.7v22.04c0 6.56-5.32 11.87-11.88 11.87h-14.14c-.94 0-1.71.76-1.71 1.71v28.25c0 .95.77 1.71 1.71 1.71zm164.7-35.62c-43.08 0-69.33 30.17-69.33 67.27s26.25 67.28 69.33 67.28c43.09 0 69.34-30.18 69.34-67.28s-26.25-67.27-69.34-67.27zm0 100.91c-19.56 0-29.71-15.33-29.71-33.64 0-18.3 10.15-33.64 29.71-33.64 19.57 0 29.72 15.34 29.72 33.64 0 18.31-10.15 33.64-29.72 33.64z" fill="#fff5ed"/></svg>