<?xml version="1.0" encoding="iso-8859-1"?>
<!-- Generator: Adobe Illustrator 21.0.0, SVG Export Plug-In . SVG Version: 6.00 Build 0)  -->
<svg version="1.1" id="Capa_1" xmlns="http://www.w3.org/2000/svg" xmlns:xlink="http://www.w3.org/1999/xlink" x="0px" y="0px"
	 viewBox="0 0 202.16 110.63" style="enable-background:new 0 0 202.16 110.63;" xml:space="preserve">
<g>
	<path d="M76.63,44.02c-0.28,0.35-0.35,0.85,0,1.13c0.14,0.21,0.42,0.28,0.71,0.28c0.14,0,0.35-0.07,0.49-0.14
		c7.06-4.66,14.6-5.01,19.68-4.37c5.57,0.63,9.45,2.4,9.52,2.47c0.28,0.14,0.63,0.07,0.85-0.07c0.28-0.21,0.42-0.49,0.35-0.85
		c-0.63-5.5-2.61-10.94-5.93-16.09c-2.61-4.09-6.14-8.04-10.3-11.71c-7.27-6.21-13.97-9.45-14.25-9.59
		C77.41,4.93,76.99,5,76.77,5.28c-0.28,0.28-0.28,0.71-0.14,0.99c3.1,5.36,5.01,10.72,5.71,15.87c0.56,4.09,0.35,8.04-0.63,11.85
		C80.02,40.35,76.7,43.95,76.63,44.02L76.63,44.02z M84.04,22c-0.63-4.52-2.12-9.24-4.52-13.97c2.61,1.48,6.84,4.16,11.22,7.97
		c4.09,3.53,7.48,7.41,10.02,11.36c2.89,4.45,4.73,9.1,5.5,13.9c-1.69-0.63-4.73-1.55-8.54-1.98c-4.59-0.49-11.01-0.35-17.43,2.68
		c1.06-1.76,2.26-4.23,3.1-7.41C84.39,30.54,84.68,26.31,84.04,22L84.04,22z M93.92,13.33c0.71,0.42,12.21,8.04,17.43,28.08
		c0.14,0.42,0.56,0.71,0.99,0.63c0.07,0,4.37-0.71,6.91,0.99c0.14,0.07,0.28,0.14,0.49,0.14c0.21,0,0.35-0.07,0.49-0.14
		c0.28-0.21,0.42-0.56,0.35-0.92c-0.07-0.21-1.48-5.5-5.36-11.92c-3.6-5.93-10.09-13.9-20.39-18.49c-0.28-0.14-0.56-0.14-0.85,0
		c-0.28,0.14-0.42,0.42-0.42,0.78C93.5,12.83,93.64,13.18,93.92,13.33L93.92,13.33z M113.6,31.11c2.4,3.95,3.88,7.55,4.66,9.6
		c-1.34-0.42-2.75-0.56-3.88-0.56c-0.63,0-1.13,0-1.55,0.07c-2.89-10.72-7.55-17.78-10.94-21.87c-0.28-0.35-0.63-0.78-0.92-1.06
		C106.97,21.51,111.06,26.87,113.6,31.11L113.6,31.11z M129.48,55.31c-0.49,0-0.92-0.14-1.34-0.49l-3.81-2.75
		c-1.48-1.06-3.39-1.06-4.8,0l-3.81,2.75c-0.85,0.63-1.91,0.63-2.75,0l-0.28-0.21c8.96-4.23,13.34-8.54,13.55-8.75
		c0.28-0.28,0.35-0.63,0.14-0.99c-0.14-0.35-0.49-0.56-0.85-0.49l-52.56,3.32c-0.28,0-0.56,0.21-0.71,0.42
		c-0.14,0.28-0.14,0.56,0,0.85l1.76,3.1l0,0l-3.81,2.75c-0.42,0.28-0.85,0.42-1.34,0.49c-0.49,0-0.85,0.42-0.85,0.85
		c0,0.49,0.42,0.85,0.85,0.85c0.85,0,1.62-0.28,2.33-0.78l3.74-2.75c0.85-0.63,1.9-0.63,2.75,0l3.81,2.75
		c0.71,0.56,1.55,0.78,2.4,0.78s1.69-0.28,2.4-0.78l3.81-2.75c0.85-0.63,1.9-0.63,2.75,0l3.81,2.75c1.48,1.06,3.39,1.06,4.8,0
		l3.81-2.75c0.85-0.63,1.9-0.63,2.75,0l3.81,2.75c1.48,1.06,3.39,1.06,4.8,0l3.81-2.75c0.85-0.63,1.9-0.63,2.75,0l3.81,2.75
		c0.71,0.49,1.48,0.78,2.33,0.78h0c0.49,0,0.85-0.35,0.85-0.85C130.33,55.73,129.9,55.31,129.48,55.31L129.48,55.31z M104.36,52.13
		l-3.74,2.75c-0.85,0.63-1.91,0.63-2.75,0l-3.81-2.75c-1.48-1.06-3.39-1.06-4.8,0l-3.81,2.75c-0.85,0.63-1.91,0.63-2.75,0
		l-3.81-2.75c-0.99-0.71-2.12-0.92-3.18-0.71l-1.2-2.05l48.54-3.03c-0.49,0.35-0.99,0.78-1.62,1.2c-2.12,1.55-5.57,3.74-10.37,5.93
		l-1.91-1.41C107.75,51.07,105.84,51.07,104.36,52.13L104.36,52.13z"/>
	<path d="M5,97.85V73.09h5.69l7.57,15.46l0,0l7.5-15.46h5.69v24.76h-4.77V81.22l0,0l-6.54,13.16h-3.78L9.77,81.22l0,0v16.62H5
		L5,97.85z M36.34,97.85V80.02h4.77v17.83H36.34L36.34,97.85z M38.74,77.58c-0.85,0-1.55-0.25-2.1-0.76
		c-0.55-0.51-0.83-1.15-0.83-1.93s0.28-1.42,0.83-1.93c0.55-0.51,1.26-0.76,2.1-0.76c0.87,0,1.59,0.25,2.14,0.76
		c0.55,0.51,0.83,1.15,0.83,1.93s-0.28,1.42-0.83,1.93C40.33,77.33,39.61,77.58,38.74,77.58L38.74,77.58z M53.84,98.27
		c-1.63,0-3.08-0.4-4.37-1.2c-1.29-0.8-2.29-1.91-3.02-3.32c-0.73-1.41-1.1-3.01-1.1-4.77c0-1.82,0.37-3.42,1.11-4.83
		c0.74-1.4,1.77-2.51,3.08-3.32c1.31-0.81,2.78-1.22,4.4-1.22c1.27,0,2.39,0.24,3.36,0.71c0.97,0.47,1.75,1.14,2.33,2.02v-9.94h4.77
		v25.47h-4.24l-0.53-2.44l0,0c-0.35,0.5-0.8,0.97-1.33,1.41c-0.53,0.45-1.16,0.8-1.89,1.06C55.7,98.14,54.84,98.27,53.84,98.27
		L53.84,98.27z M54.98,94.1c0.94,0,1.77-0.22,2.49-0.65c0.72-0.44,1.28-1.04,1.68-1.82c0.4-0.78,0.6-1.67,0.6-2.69
		c0-1.01-0.2-1.91-0.6-2.69c-0.4-0.78-0.96-1.39-1.68-1.82c-0.72-0.44-1.55-0.65-2.49-0.65c-0.9,0-1.71,0.22-2.44,0.65
		c-0.73,0.44-1.3,1.04-1.72,1.82c-0.41,0.78-0.62,1.66-0.62,2.65c0,1.04,0.21,1.95,0.62,2.72c0.41,0.78,0.98,1.39,1.7,1.82
		C53.24,93.88,54.06,94.1,54.98,94.1L54.98,94.1z M65.73,105.63v-4.07h1.45c0.75,0,1.29-0.15,1.61-0.46
		c0.32-0.31,0.48-0.8,0.48-1.49V80.02h4.77v19.56c0,1.46-0.25,2.63-0.76,3.52c-0.51,0.88-1.22,1.53-2.14,1.93
		c-0.92,0.4-2,0.6-3.25,0.6H65.73L65.73,105.63z M71.67,77.58c-0.87,0-1.58-0.25-2.12-0.76c-0.54-0.51-0.81-1.15-0.81-1.93
		s0.27-1.42,0.81-1.93c0.54-0.51,1.25-0.76,2.12-0.76s1.58,0.25,2.12,0.76c0.54,0.51,0.81,1.15,0.81,1.93s-0.27,1.42-0.81,1.93
		C73.25,77.33,72.54,77.58,71.67,77.58L71.67,77.58z M87.2,98.27c-1.7,0-3.22-0.39-4.58-1.18c-1.36-0.79-2.43-1.89-3.22-3.29
		c-0.79-1.4-1.18-3.01-1.18-4.83c0-1.86,0.4-3.5,1.18-4.9c0.79-1.4,1.87-2.5,3.24-3.29c1.37-0.79,2.9-1.18,4.6-1.18
		c1.72,0,3.26,0.4,4.62,1.18c1.36,0.79,2.43,1.89,3.22,3.29c0.79,1.4,1.18,3.02,1.18,4.86c0,1.84-0.39,3.46-1.18,4.86
		c-0.79,1.4-1.87,2.5-3.24,3.29C90.46,97.88,88.92,98.27,87.2,98.27L87.2,98.27z M87.2,94.13c0.8,0,1.51-0.19,2.14-0.57
		c0.62-0.38,1.12-0.95,1.49-1.73c0.37-0.78,0.55-1.74,0.55-2.9c0-1.16-0.18-2.12-0.55-2.88c-0.37-0.77-0.86-1.34-1.49-1.73
		c-0.63-0.39-1.33-0.58-2.1-0.58c-0.75,0-1.45,0.19-2.09,0.58c-0.64,0.39-1.14,0.97-1.5,1.73c-0.37,0.77-0.55,1.73-0.55,2.88
		c0,1.16,0.18,2.12,0.55,2.9c0.37,0.78,0.86,1.36,1.49,1.73C85.75,93.95,86.44,94.13,87.2,94.13L87.2,94.13z M107,98.27
		c-1.44,0-2.67-0.3-3.7-0.9c-1.03-0.6-1.81-1.49-2.35-2.65c-0.54-1.17-0.81-2.61-0.81-4.33V80.02h4.77v9.87
		c0,1.44,0.3,2.52,0.9,3.25c0.6,0.73,1.53,1.1,2.78,1.1c0.8,0,1.51-0.18,2.12-0.55c0.61-0.37,1.1-0.9,1.47-1.59
		c0.37-0.7,0.55-1.55,0.55-2.56v-9.51h4.74v17.83h-4.17l-0.39-2.9l0,0c-0.52,1.01-1.28,1.82-2.3,2.42
		C109.6,97.97,108.4,98.27,107,98.27L107,98.27z M122.14,97.85V80.02h4.24l0.46,3.29l0,0c0.42-0.78,0.96-1.44,1.61-1.98
		c0.65-0.54,1.39-0.97,2.23-1.27c0.84-0.31,1.76-0.46,2.78-0.46v5.06h-1.63c-0.71,0-1.36,0.08-1.96,0.25
		c-0.6,0.17-1.13,0.43-1.57,0.8c-0.45,0.37-0.79,0.87-1.03,1.5c-0.24,0.64-0.35,1.44-0.35,2.4v8.24H122.14L122.14,97.85z
		 M136.61,97.85V80.02h4.21l0.35,2.9l0,0c0.54-0.99,1.31-1.79,2.32-2.41c1-0.61,2.2-0.92,3.59-0.92c1.49,0,2.74,0.31,3.75,0.92
		c1.01,0.61,1.79,1.51,2.32,2.69c0.53,1.18,0.8,2.63,0.8,4.35v10.29h-4.74v-9.83c0-1.41-0.3-2.5-0.9-3.25
		c-0.6-0.75-1.53-1.13-2.78-1.13c-0.8,0-1.51,0.19-2.14,0.57c-0.62,0.38-1.11,0.91-1.47,1.61c-0.35,0.7-0.53,1.54-0.53,2.53v9.51
		H136.61L136.61,97.85z M166.99,98.27c-1.79,0-3.38-0.38-4.76-1.15c-1.38-0.77-2.45-1.84-3.22-3.22c-0.77-1.38-1.15-2.98-1.15-4.79
		c0-1.86,0.38-3.51,1.13-4.93c0.75-1.43,1.82-2.55,3.2-3.36c1.38-0.81,2.98-1.22,4.79-1.22c1.77,0,3.31,0.39,4.63,1.17
		c1.32,0.78,2.35,1.83,3.08,3.15c0.73,1.32,1.1,2.82,1.1,4.49c0,0.24,0,0.5,0,0.8c0,0.29-0.02,0.6-0.07,0.9h-14.47v-2.9h9.73
		c-0.07-1.16-0.48-2.06-1.22-2.72c-0.74-0.66-1.67-0.99-2.78-0.99c-0.8,0-1.54,0.18-2.23,0.55c-0.68,0.37-1.22,0.93-1.61,1.68
		c-0.39,0.75-0.58,1.71-0.58,2.86v1.03c0,0.97,0.18,1.81,0.55,2.53c0.37,0.72,0.88,1.27,1.54,1.66c0.66,0.39,1.43,0.58,2.3,0.58
		c0.87,0,1.6-0.19,2.18-0.57c0.58-0.38,1.01-0.86,1.29-1.45h4.88c-0.33,1.11-0.88,2.11-1.66,3.01c-0.78,0.9-1.73,1.6-2.86,2.12
		C169.64,98.01,168.38,98.27,166.99,98.27L166.99,98.27z M181.1,105.63l4.32-9.76h-1.06l-7.14-15.85h5.2l5.09,11.5l0,0l4.6-11.5
		h5.06l-11,25.61H181.1L181.1,105.63z"/>
</g>
</svg>
